<svg width="24" height="24" viewBox="0 0 24 24" fill="none" xmlns="http://www.w3.org/2000/svg">
<path d="M21.4594 4.6594C21.3706 4.58943 21.2671 4.54044 21.1567 4.51609C21.0463 4.49173 20.9318 4.49265 20.8218 4.51877L15.0843 5.95315L9.33747 3.07502H9.3281L9.2531 3.0469H9.23435L9.16873 3.02815H9.1406L9.07498 3.0094H8.82185L2.82185 4.5094C2.6567 4.54976 2.51015 4.64503 2.40625 4.77959C2.30234 4.91416 2.24724 5.08003 2.24997 5.25002V18.75C2.24888 18.8643 2.2746 18.9773 2.32507 19.0799C2.37554 19.1825 2.44936 19.2718 2.5406 19.3407C2.67143 19.444 2.83328 19.5001 2.99997 19.5L3.1781 19.4813L8.9156 18.0469L14.6625 20.925H14.6719L14.7375 20.9531H14.7469L14.8219 20.9813H15.1781L21.1781 19.4813C21.3417 19.4413 21.487 19.3474 21.5908 19.2148C21.6945 19.0821 21.7506 18.9184 21.75 18.75V5.25002C21.7511 5.13571 21.7253 5.02273 21.6749 4.92016C21.6244 4.81759 21.5506 4.72828 21.4594 4.6594ZM14.25 19.0406L9.74998 16.7906V4.9594L14.25 7.2094V19.0406Z" fill="white"/>
</svg>
